<mxfile host="app.diagrams.net" agent="Mozilla/5.0 (Windows NT 10.0; Win64; x64) AppleWebKit/537.36 (KHTML, like Gecko) Chrome/140.0.0.0 Safari/537.36" version="28.2.5">
  <diagram name="PÃ¡gina-1" id="gAFbm-pbRTv4d4N4CGBL">
    <mxGraphModel dx="2962" dy="2201" grid="1" gridSize="10" guides="1" tooltips="1" connect="1" arrows="1" fold="1" page="1" pageScale="1" pageWidth="827" pageHeight="1169" math="0" shadow="0">
      <root>
        <mxCell id="0" />
        <mxCell id="1" parent="0" />
        <mxCell id="vJBA6wbEJIaKAs_2SZZ2-16" style="edgeStyle=none;curved=1;rounded=0;orthogonalLoop=1;jettySize=auto;html=1;entryX=1;entryY=0.5;entryDx=0;entryDy=0;fontSize=12;startSize=8;endSize=8;labelBackgroundColor=none;strokeColor=#736CA8;fontColor=default;" edge="1" parent="1" source="gY9utHJKjtfVCZrEkNN_-38" target="vJBA6wbEJIaKAs_2SZZ2-5">
          <mxGeometry relative="1" as="geometry" />
        </mxCell>
        <mxCell id="gY9utHJKjtfVCZrEkNN_-38" value="profesor" style="swimlane;childLayout=stackLayout;horizontal=1;startSize=50;horizontalStack=0;rounded=1;fontSize=14;fontStyle=0;strokeWidth=2;resizeParent=0;resizeLast=1;shadow=0;dashed=0;align=center;arcSize=4;whiteSpace=wrap;html=1;labelBackgroundColor=none;fillColor=#5D7F99;strokeColor=#D0CEE2;fontColor=#1A1A1A;" parent="1" vertex="1">
          <mxGeometry x="786" y="300" width="160" height="120" as="geometry" />
        </mxCell>
        <mxCell id="gY9utHJKjtfVCZrEkNN_-39" value="(id&lt;span style=&quot;background-color: transparent; color: light-dark(rgb(0, 0, 0), rgb(255, 255, 255));&quot;&gt;)NRC&lt;/span&gt;&lt;div&gt;Nombre&lt;/div&gt;&lt;div&gt;Area de conocimiento&lt;/div&gt;&lt;div&gt;Categoria&lt;/div&gt;" style="align=left;strokeColor=none;fillColor=none;spacingLeft=4;spacingRight=4;fontSize=12;verticalAlign=top;resizable=0;rotatable=0;part=1;html=1;whiteSpace=wrap;labelBackgroundColor=none;fontColor=#1A1A1A;" parent="gY9utHJKjtfVCZrEkNN_-38" vertex="1">
          <mxGeometry y="50" width="160" height="70" as="geometry" />
        </mxCell>
        <mxCell id="gY9utHJKjtfVCZrEkNN_-40" value="Departamento" style="swimlane;childLayout=stackLayout;horizontal=1;startSize=50;horizontalStack=0;rounded=1;fontSize=14;fontStyle=0;strokeWidth=2;resizeParent=0;resizeLast=1;shadow=0;dashed=0;align=center;arcSize=4;whiteSpace=wrap;html=1;labelBackgroundColor=none;fillColor=#5D7F99;strokeColor=#D0CEE2;fontColor=#1A1A1A;" parent="1" vertex="1">
          <mxGeometry x="784" y="650" width="160" height="120" as="geometry" />
        </mxCell>
        <mxCell id="gY9utHJKjtfVCZrEkNN_-41" value="(id)Codigo de departamentol" style="align=left;strokeColor=none;fillColor=none;spacingLeft=4;spacingRight=4;fontSize=12;verticalAlign=top;resizable=0;rotatable=0;part=1;html=1;whiteSpace=wrap;labelBackgroundColor=none;fontColor=#1A1A1A;" parent="gY9utHJKjtfVCZrEkNN_-40" vertex="1">
          <mxGeometry y="50" width="160" height="70" as="geometry" />
        </mxCell>
        <mxCell id="vJBA6wbEJIaKAs_2SZZ2-45" style="edgeStyle=none;curved=1;rounded=0;orthogonalLoop=1;jettySize=auto;html=1;exitX=0;exitY=0;exitDx=0;exitDy=0;entryX=1;entryY=1;entryDx=0;entryDy=0;fontSize=12;startSize=8;endSize=8;labelBackgroundColor=none;strokeColor=#736CA8;fontColor=default;" edge="1" parent="1" source="gY9utHJKjtfVCZrEkNN_-42" target="vJBA6wbEJIaKAs_2SZZ2-44">
          <mxGeometry relative="1" as="geometry" />
        </mxCell>
        <mxCell id="gY9utHJKjtfVCZrEkNN_-42" value="grupos" style="swimlane;childLayout=stackLayout;horizontal=1;startSize=50;horizontalStack=0;rounded=1;fontSize=14;fontStyle=0;strokeWidth=2;resizeParent=0;resizeLast=1;shadow=0;dashed=0;align=center;arcSize=4;whiteSpace=wrap;html=1;labelBackgroundColor=none;fillColor=#5D7F99;strokeColor=#D0CEE2;fontColor=#1A1A1A;" parent="1" vertex="1">
          <mxGeometry x="180" y="300" width="160" height="120" as="geometry" />
        </mxCell>
        <mxCell id="gY9utHJKjtfVCZrEkNN_-43" value="(id)Codigo del grupo&lt;div&gt;Maximo de alumnos&lt;/div&gt;&lt;div&gt;Tipo&lt;/div&gt;" style="align=left;strokeColor=none;fillColor=none;spacingLeft=4;spacingRight=4;fontSize=12;verticalAlign=top;resizable=0;rotatable=0;part=1;html=1;whiteSpace=wrap;labelBackgroundColor=none;fontColor=#1A1A1A;" parent="gY9utHJKjtfVCZrEkNN_-42" vertex="1">
          <mxGeometry y="50" width="160" height="70" as="geometry" />
        </mxCell>
        <mxCell id="vJBA6wbEJIaKAs_2SZZ2-74" style="edgeStyle=none;curved=1;rounded=0;orthogonalLoop=1;jettySize=auto;html=1;exitX=0.5;exitY=0;exitDx=0;exitDy=0;entryX=0.5;entryY=1;entryDx=0;entryDy=0;strokeColor=#736CA8;fontSize=12;fontColor=#1A1A1A;startSize=8;endSize=8;" edge="1" parent="1" source="gY9utHJKjtfVCZrEkNN_-44" target="vJBA6wbEJIaKAs_2SZZ2-5">
          <mxGeometry relative="1" as="geometry">
            <mxPoint x="560" y="530" as="targetPoint" />
          </mxGeometry>
        </mxCell>
        <mxCell id="gY9utHJKjtfVCZrEkNN_-44" value="asignatura" style="swimlane;childLayout=stackLayout;horizontal=1;startSize=50;horizontalStack=0;rounded=1;fontSize=14;fontStyle=0;strokeWidth=2;resizeParent=0;resizeLast=1;shadow=0;dashed=0;align=center;arcSize=4;whiteSpace=wrap;html=1;labelBackgroundColor=none;fillColor=#5D7F99;strokeColor=#D0CEE2;fontColor=#1A1A1A;" parent="1" vertex="1">
          <mxGeometry x="480" y="610" width="160" height="140" as="geometry" />
        </mxCell>
        <mxCell id="gY9utHJKjtfVCZrEkNN_-45" value="(id)Codigo asignatura&lt;div&gt;Nombre&lt;/div&gt;&lt;div&gt;Creditos&lt;/div&gt;&lt;div&gt;Caracter&lt;/div&gt;&lt;div&gt;Curso&lt;/div&gt;" style="align=left;strokeColor=none;fillColor=none;spacingLeft=4;spacingRight=4;fontSize=12;verticalAlign=top;resizable=0;rotatable=0;part=1;html=1;whiteSpace=wrap;labelBackgroundColor=none;fontColor=#1A1A1A;" parent="gY9utHJKjtfVCZrEkNN_-44" vertex="1">
          <mxGeometry y="50" width="160" height="90" as="geometry" />
        </mxCell>
        <mxCell id="vJBA6wbEJIaKAs_2SZZ2-3" style="edgeStyle=none;curved=1;rounded=0;orthogonalLoop=1;jettySize=auto;html=1;exitX=0.5;exitY=1;exitDx=0;exitDy=0;fontSize=12;startSize=8;endSize=8;entryX=0.25;entryY=0;entryDx=0;entryDy=0;labelBackgroundColor=none;strokeColor=#736CA8;fontColor=default;" edge="1" parent="1" source="gY9utHJKjtfVCZrEkNN_-46" target="gY9utHJKjtfVCZrEkNN_-40">
          <mxGeometry relative="1" as="geometry">
            <mxPoint x="820" y="640" as="targetPoint" />
          </mxGeometry>
        </mxCell>
        <mxCell id="gY9utHJKjtfVCZrEkNN_-46" value="Pertenece" style="shape=rhombus;perimeter=rhombusPerimeter;whiteSpace=wrap;html=1;align=center;labelBackgroundColor=none;fillColor=#5D7F99;strokeColor=#D0CEE2;fontColor=#1A1A1A;" parent="1" vertex="1">
          <mxGeometry x="756" y="500" width="120" height="60" as="geometry" />
        </mxCell>
        <mxCell id="vJBA6wbEJIaKAs_2SZZ2-1" style="edgeStyle=none;curved=1;rounded=0;orthogonalLoop=1;jettySize=auto;html=1;exitX=0.25;exitY=1;exitDx=0;exitDy=0;entryX=0.5;entryY=0;entryDx=0;entryDy=0;fontSize=12;startSize=8;endSize=8;labelBackgroundColor=none;strokeColor=#736CA8;fontColor=default;" edge="1" parent="1" source="gY9utHJKjtfVCZrEkNN_-39" target="gY9utHJKjtfVCZrEkNN_-46">
          <mxGeometry relative="1" as="geometry" />
        </mxCell>
        <mxCell id="vJBA6wbEJIaKAs_2SZZ2-2" value="N" style="text;html=1;align=center;verticalAlign=middle;resizable=0;points=[];autosize=1;strokeColor=none;fillColor=none;fontSize=16;labelBackgroundColor=none;fontColor=#1A1A1A;" vertex="1" parent="1">
          <mxGeometry x="822" y="421" width="40" height="30" as="geometry" />
        </mxCell>
        <mxCell id="vJBA6wbEJIaKAs_2SZZ2-4" value="1" style="text;html=1;align=center;verticalAlign=middle;resizable=0;points=[];autosize=1;strokeColor=none;fillColor=none;fontSize=16;labelBackgroundColor=none;fontColor=#1A1A1A;" vertex="1" parent="1">
          <mxGeometry x="827" y="620" width="30" height="30" as="geometry" />
        </mxCell>
        <mxCell id="vJBA6wbEJIaKAs_2SZZ2-7" style="edgeStyle=none;curved=1;rounded=0;orthogonalLoop=1;jettySize=auto;html=1;exitX=0;exitY=0.5;exitDx=0;exitDy=0;entryX=1;entryY=0.25;entryDx=0;entryDy=0;fontSize=12;startSize=8;endSize=8;labelBackgroundColor=none;strokeColor=#736CA8;fontColor=default;" edge="1" parent="1" source="vJBA6wbEJIaKAs_2SZZ2-5" target="gY9utHJKjtfVCZrEkNN_-43">
          <mxGeometry relative="1" as="geometry" />
        </mxCell>
        <mxCell id="vJBA6wbEJIaKAs_2SZZ2-5" value="imparte" style="shape=rhombus;perimeter=rhombusPerimeter;whiteSpace=wrap;html=1;align=center;labelBackgroundColor=none;fillColor=#5D7F99;strokeColor=#D0CEE2;fontColor=#1A1A1A;" vertex="1" parent="1">
          <mxGeometry x="500" y="340" width="120" height="60" as="geometry" />
        </mxCell>
        <mxCell id="vJBA6wbEJIaKAs_2SZZ2-8" value="1" style="text;html=1;align=center;verticalAlign=middle;resizable=0;points=[];autosize=1;strokeColor=none;fillColor=none;fontSize=16;labelBackgroundColor=none;fontColor=#1A1A1A;" vertex="1" parent="1">
          <mxGeometry x="756" y="340" width="30" height="30" as="geometry" />
        </mxCell>
        <mxCell id="vJBA6wbEJIaKAs_2SZZ2-9" value="N" style="text;html=1;align=center;verticalAlign=middle;resizable=0;points=[];autosize=1;strokeColor=none;fillColor=none;fontSize=16;labelBackgroundColor=none;fontColor=#1A1A1A;" vertex="1" parent="1">
          <mxGeometry x="340" y="340" width="40" height="30" as="geometry" />
        </mxCell>
        <mxCell id="vJBA6wbEJIaKAs_2SZZ2-18" style="edgeStyle=none;curved=1;rounded=0;orthogonalLoop=1;jettySize=auto;html=1;exitX=1;exitY=0;exitDx=0;exitDy=0;entryX=0;entryY=1;entryDx=0;entryDy=0;fontSize=12;startSize=8;endSize=8;labelBackgroundColor=none;strokeColor=#736CA8;fontColor=default;" edge="1" parent="1" target="gY9utHJKjtfVCZrEkNN_-39">
          <mxGeometry relative="1" as="geometry">
            <mxPoint x="786.0000000000002" y="400" as="sourcePoint" />
          </mxGeometry>
        </mxCell>
        <mxCell id="vJBA6wbEJIaKAs_2SZZ2-25" value="Teoria" style="swimlane;childLayout=stackLayout;horizontal=1;startSize=50;horizontalStack=0;rounded=1;fontSize=14;fontStyle=0;strokeWidth=2;resizeParent=0;resizeLast=1;shadow=0;dashed=0;align=center;arcSize=4;whiteSpace=wrap;html=1;labelBackgroundColor=none;fillColor=#5D7F99;strokeColor=#D0CEE2;fontColor=#1A1A1A;" vertex="1" parent="1">
          <mxGeometry x="80" y="-130" width="160" height="120" as="geometry" />
        </mxCell>
        <mxCell id="vJBA6wbEJIaKAs_2SZZ2-26" value="Horas de clase" style="align=left;strokeColor=none;fillColor=none;spacingLeft=4;spacingRight=4;fontSize=12;verticalAlign=top;resizable=0;rotatable=0;part=1;html=1;whiteSpace=wrap;labelBackgroundColor=none;fontColor=#1A1A1A;" vertex="1" parent="vJBA6wbEJIaKAs_2SZZ2-25">
          <mxGeometry y="50" width="160" height="70" as="geometry" />
        </mxCell>
        <mxCell id="vJBA6wbEJIaKAs_2SZZ2-27" value="Practicas" style="swimlane;childLayout=stackLayout;horizontal=1;startSize=50;horizontalStack=0;rounded=1;fontSize=14;fontStyle=0;strokeWidth=2;resizeParent=0;resizeLast=1;shadow=0;dashed=0;align=center;arcSize=4;whiteSpace=wrap;html=1;labelBackgroundColor=none;fillColor=#5D7F99;strokeColor=#D0CEE2;fontColor=#1A1A1A;" vertex="1" parent="1">
          <mxGeometry x="-290" y="-60" width="160" height="120" as="geometry" />
        </mxCell>
        <mxCell id="vJBA6wbEJIaKAs_2SZZ2-28" value="Taller utilizado" style="align=left;strokeColor=none;fillColor=none;spacingLeft=4;spacingRight=4;fontSize=12;verticalAlign=top;resizable=0;rotatable=0;part=1;html=1;whiteSpace=wrap;labelBackgroundColor=none;fontColor=#1A1A1A;" vertex="1" parent="vJBA6wbEJIaKAs_2SZZ2-27">
          <mxGeometry y="50" width="160" height="70" as="geometry" />
        </mxCell>
        <mxCell id="vJBA6wbEJIaKAs_2SZZ2-46" style="edgeStyle=none;curved=1;rounded=0;orthogonalLoop=1;jettySize=auto;html=1;exitX=0;exitY=0;exitDx=0;exitDy=0;entryX=1;entryY=1;entryDx=0;entryDy=0;fontSize=12;startSize=8;endSize=8;labelBackgroundColor=none;strokeColor=#736CA8;fontColor=default;" edge="1" parent="1" source="vJBA6wbEJIaKAs_2SZZ2-44" target="vJBA6wbEJIaKAs_2SZZ2-27">
          <mxGeometry relative="1" as="geometry" />
        </mxCell>
        <mxCell id="vJBA6wbEJIaKAs_2SZZ2-47" style="edgeStyle=none;curved=1;rounded=0;orthogonalLoop=1;jettySize=auto;html=1;exitX=0.5;exitY=0;exitDx=0;exitDy=0;entryX=0;entryY=1;entryDx=0;entryDy=0;fontSize=12;startSize=8;endSize=8;labelBackgroundColor=none;strokeColor=#736CA8;fontColor=default;" edge="1" parent="1" source="vJBA6wbEJIaKAs_2SZZ2-44" target="vJBA6wbEJIaKAs_2SZZ2-26">
          <mxGeometry relative="1" as="geometry" />
        </mxCell>
        <mxCell id="vJBA6wbEJIaKAs_2SZZ2-44" value="es un" style="shape=associativeEntity;whiteSpace=wrap;html=1;align=center;labelBackgroundColor=none;fillColor=#5D7F99;strokeColor=#D0CEE2;fontColor=#1A1A1A;" vertex="1" parent="1">
          <mxGeometry x="-20" y="120" width="140" height="60" as="geometry" />
        </mxCell>
        <mxCell id="vJBA6wbEJIaKAs_2SZZ2-48" value="N" style="text;html=1;align=center;verticalAlign=middle;resizable=0;points=[];autosize=1;strokeColor=none;fillColor=none;fontSize=16;labelBackgroundColor=none;fontColor=#1A1A1A;" vertex="1" parent="1">
          <mxGeometry x="94" y="181" width="40" height="30" as="geometry" />
        </mxCell>
        <mxCell id="vJBA6wbEJIaKAs_2SZZ2-49" value="1" style="text;html=1;align=center;verticalAlign=middle;resizable=0;points=[];autosize=1;strokeColor=none;fillColor=none;fontSize=16;labelBackgroundColor=none;fontColor=#1A1A1A;" vertex="1" parent="1">
          <mxGeometry x="-151" y="61" width="30" height="30" as="geometry" />
        </mxCell>
        <mxCell id="vJBA6wbEJIaKAs_2SZZ2-50" value="1" style="text;html=1;align=center;verticalAlign=middle;resizable=0;points=[];autosize=1;strokeColor=none;fillColor=none;fontSize=16;labelBackgroundColor=none;fontColor=#1A1A1A;" vertex="1" parent="1">
          <mxGeometry x="39" y="-29" width="30" height="30" as="geometry" />
        </mxCell>
        <mxCell id="vJBA6wbEJIaKAs_2SZZ2-51" value="Alumnos" style="swimlane;childLayout=stackLayout;horizontal=1;startSize=50;horizontalStack=0;rounded=1;fontSize=14;fontStyle=0;strokeWidth=2;resizeParent=0;resizeLast=1;shadow=0;dashed=0;align=center;arcSize=4;whiteSpace=wrap;html=1;labelBackgroundColor=none;fillColor=#5D7F99;strokeColor=#D0CEE2;fontColor=#1A1A1A;" vertex="1" parent="1">
          <mxGeometry x="-116" y="615" width="160" height="135" as="geometry" />
        </mxCell>
        <mxCell id="vJBA6wbEJIaKAs_2SZZ2-52" value="(id)DNI&lt;div&gt;Nombre&lt;/div&gt;&lt;div&gt;Fecha nacimiento&lt;/div&gt;&lt;div&gt;Direccion&lt;/div&gt;&lt;div&gt;Beca&lt;/div&gt;" style="align=left;strokeColor=none;fillColor=none;spacingLeft=4;spacingRight=4;fontSize=12;verticalAlign=top;resizable=0;rotatable=0;part=1;html=1;whiteSpace=wrap;labelBackgroundColor=none;fontColor=#1A1A1A;" vertex="1" parent="vJBA6wbEJIaKAs_2SZZ2-51">
          <mxGeometry y="50" width="160" height="85" as="geometry" />
        </mxCell>
        <mxCell id="vJBA6wbEJIaKAs_2SZZ2-56" style="edgeStyle=none;curved=1;rounded=0;orthogonalLoop=1;jettySize=auto;html=1;exitX=0.5;exitY=0;exitDx=0;exitDy=0;entryX=0.5;entryY=1;entryDx=0;entryDy=0;fontSize=12;startSize=8;endSize=8;labelBackgroundColor=none;strokeColor=#736CA8;fontColor=default;" edge="1" parent="1" source="vJBA6wbEJIaKAs_2SZZ2-54" target="gY9utHJKjtfVCZrEkNN_-43">
          <mxGeometry relative="1" as="geometry">
            <mxPoint x="265" y="420" as="targetPoint" />
          </mxGeometry>
        </mxCell>
        <mxCell id="vJBA6wbEJIaKAs_2SZZ2-77" style="edgeStyle=none;curved=1;rounded=0;orthogonalLoop=1;jettySize=auto;html=1;exitX=1;exitY=0.5;exitDx=0;exitDy=0;entryX=0;entryY=0.25;entryDx=0;entryDy=0;strokeColor=#736CA8;fontSize=12;fontColor=#1A1A1A;startSize=8;endSize=8;" edge="1" parent="1" source="vJBA6wbEJIaKAs_2SZZ2-54" target="gY9utHJKjtfVCZrEkNN_-45">
          <mxGeometry relative="1" as="geometry" />
        </mxCell>
        <mxCell id="vJBA6wbEJIaKAs_2SZZ2-54" value="Matriculan" style="shape=rhombus;perimeter=rhombusPerimeter;whiteSpace=wrap;html=1;align=center;labelBackgroundColor=none;fillColor=#5D7F99;strokeColor=#D0CEE2;fontColor=#1A1A1A;" vertex="1" parent="1">
          <mxGeometry x="200" y="652.5" width="120" height="60" as="geometry" />
        </mxCell>
        <mxCell id="vJBA6wbEJIaKAs_2SZZ2-55" style="edgeStyle=none;curved=1;rounded=0;orthogonalLoop=1;jettySize=auto;html=1;exitX=1;exitY=0.25;exitDx=0;exitDy=0;entryX=0;entryY=0.5;entryDx=0;entryDy=0;fontSize=12;startSize=8;endSize=8;labelBackgroundColor=none;strokeColor=#736CA8;fontColor=default;" edge="1" parent="1" source="vJBA6wbEJIaKAs_2SZZ2-52" target="vJBA6wbEJIaKAs_2SZZ2-54">
          <mxGeometry relative="1" as="geometry" />
        </mxCell>
        <mxCell id="vJBA6wbEJIaKAs_2SZZ2-57" value="1" style="text;html=1;align=center;verticalAlign=middle;resizable=0;points=[];autosize=1;strokeColor=none;fillColor=none;fontSize=16;labelBackgroundColor=none;fontColor=#1A1A1A;" vertex="1" parent="1">
          <mxGeometry x="145" y="310" width="30" height="30" as="geometry" />
        </mxCell>
        <mxCell id="vJBA6wbEJIaKAs_2SZZ2-58" value="N" style="text;html=1;align=center;verticalAlign=middle;resizable=0;points=[];autosize=1;strokeColor=none;fillColor=none;fontSize=16;labelBackgroundColor=none;fontColor=#1A1A1A;" vertex="1" parent="1">
          <mxGeometry x="-156" y="331" width="40" height="30" as="geometry" />
        </mxCell>
        <mxCell id="vJBA6wbEJIaKAs_2SZZ2-70" style="edgeStyle=none;curved=1;rounded=0;orthogonalLoop=1;jettySize=auto;html=1;exitX=0.5;exitY=1;exitDx=0;exitDy=0;entryX=1;entryY=0;entryDx=0;entryDy=0;fontSize=12;startSize=8;endSize=8;labelBackgroundColor=none;strokeColor=#736CA8;fontColor=default;" edge="1" parent="1" source="vJBA6wbEJIaKAs_2SZZ2-68" target="gY9utHJKjtfVCZrEkNN_-40">
          <mxGeometry relative="1" as="geometry" />
        </mxCell>
        <mxCell id="vJBA6wbEJIaKAs_2SZZ2-68" value="Dirige" style="shape=rhombus;perimeter=rhombusPerimeter;whiteSpace=wrap;html=1;align=center;labelBackgroundColor=none;fillColor=#5D7F99;strokeColor=#D0CEE2;fontColor=#1A1A1A;" vertex="1" parent="1">
          <mxGeometry x="910" y="500" width="120" height="60" as="geometry" />
        </mxCell>
        <mxCell id="vJBA6wbEJIaKAs_2SZZ2-69" style="edgeStyle=none;curved=1;rounded=0;orthogonalLoop=1;jettySize=auto;html=1;exitX=0.75;exitY=1;exitDx=0;exitDy=0;entryX=0.5;entryY=0;entryDx=0;entryDy=0;fontSize=12;startSize=8;endSize=8;labelBackgroundColor=none;strokeColor=#736CA8;fontColor=default;" edge="1" parent="1" source="gY9utHJKjtfVCZrEkNN_-39" target="vJBA6wbEJIaKAs_2SZZ2-68">
          <mxGeometry relative="1" as="geometry" />
        </mxCell>
        <mxCell id="vJBA6wbEJIaKAs_2SZZ2-71" value="1" style="text;html=1;align=center;verticalAlign=middle;resizable=0;points=[];autosize=1;strokeColor=none;fillColor=none;fontSize=16;labelBackgroundColor=none;fontColor=#1A1A1A;" vertex="1" parent="1">
          <mxGeometry x="916" y="421" width="30" height="30" as="geometry" />
        </mxCell>
        <mxCell id="vJBA6wbEJIaKAs_2SZZ2-72" value="1" style="text;html=1;align=center;verticalAlign=middle;resizable=0;points=[];autosize=1;strokeColor=none;fillColor=none;fontSize=16;labelBackgroundColor=none;fontColor=#1A1A1A;" vertex="1" parent="1">
          <mxGeometry x="955" y="629.5" width="30" height="30" as="geometry" />
        </mxCell>
        <mxCell id="vJBA6wbEJIaKAs_2SZZ2-76" value="N" style="text;html=1;align=center;verticalAlign=middle;resizable=0;points=[];autosize=1;strokeColor=none;fillColor=none;fontSize=16;fontColor=#1A1A1A;" vertex="1" parent="1">
          <mxGeometry x="544" y="581" width="40" height="30" as="geometry" />
        </mxCell>
        <mxCell id="vJBA6wbEJIaKAs_2SZZ2-78" value="1" style="text;html=1;align=center;verticalAlign=middle;resizable=0;points=[];autosize=1;strokeColor=none;fillColor=none;fontSize=16;fontColor=#1A1A1A;" vertex="1" parent="1">
          <mxGeometry x="260" y="421" width="30" height="30" as="geometry" />
        </mxCell>
        <mxCell id="vJBA6wbEJIaKAs_2SZZ2-79" value="N" style="text;html=1;align=center;verticalAlign=middle;resizable=0;points=[];autosize=1;strokeColor=none;fillColor=none;fontSize=16;fontColor=#1A1A1A;" vertex="1" parent="1">
          <mxGeometry x="34" y="651" width="40" height="30" as="geometry" />
        </mxCell>
        <mxCell id="vJBA6wbEJIaKAs_2SZZ2-80" value="M" style="text;html=1;align=center;verticalAlign=middle;resizable=0;points=[];autosize=1;strokeColor=none;fillColor=none;fontSize=16;fontColor=#1A1A1A;" vertex="1" parent="1">
          <mxGeometry x="444" y="641" width="40" height="30" as="geometry" />
        </mxCell>
      </root>
    </mxGraphModel>
  </diagram>
</mxfile>
